# xmcd CD database file
#
# Track frame offsets:
#	150
#	20682
#	47211
#	69641
#	98045
#	109134
#	137710
#	152973
#	172552
#	190964
#	224491
#	237901
#	254807
#	269512
#	288932
#
# Disc length: 4129 seconds
#
# Revision: 0
# Processed by: cddbd v1.5.2PL0 Copyright (c) Steve Scherf et al.
# Submitted via: CDex 1.51
#
DISCID=e4101f0f
DTITLE=Playgame Music - Basi per chitarra Blues 1
DYEAR=1998
DGENRE=Blues
TTITLE0=Chevrolet
TTITLE1=Revelation
TTITLE2=Cold day in hell
TTITLE3=Still got the blues
TTITLE4=I go crazy
TTITLE5=Country man
TTITLE6=It hurts me too
TTITLE7=Hoochie coochie man
TTITLE8=Red house
TTITLE9=Since I've been loving you
TTITLE10=Pride and joy
TTITLE11=Mary had a little lamb
TTITLE12=I loved another woman
TTITLE13=For the love of a woman
TTITLE14=Thrill is gone
EXTD=YEAR: 1998
EXTT0=
EXTT1=
EXTT2=
EXTT3=
EXTT4=
EXTT5=
EXTT6=
EXTT7=
EXTT8=
EXTT9=
EXTT10=
EXTT11=
EXTT12=
EXTT13=
EXTT14=
PLAYORDER=
